<?xml version="1.0" encoding="UTF-8"?>
<svg xmlns="http://www.w3.org/2000/svg" xmlns:xlink="http://www.w3.org/1999/xlink" width="1279pt" height="678.38pt" viewBox="0 0 1279 678.38" version="1.1">
<defs>
<clipPath id="clip1">
  <path d="M 0 0 L 1279 0 L 1279 678.378906 L 0 678.378906 Z M 0 0 "/>
</clipPath>
<clipPath id="clip2">
  <path d="M 643 288 L 1279 288 L 1279 678.378906 L 643 678.378906 Z M 643 288 "/>
</clipPath>
</defs>
<g id="surface1">
<path style=" stroke:none;fill-rule:evenodd;fill:rgb(22.698975%,25.498962%,27.099609%);fill-opacity:1;" d="M 615 65.378906 C 629.007813 63.714844 649.996094 63.714844 664 65.378906 C 647.667969 65.378906 631.335938 65.378906 615 65.378906 "/>
<path style=" stroke:none;fill-rule:evenodd;fill:rgb(74.899292%,75.299072%,76.899719%);fill-opacity:1;" d="M 617 103.378906 C 629.671875 101.714844 649.328125 101.714844 662 103.378906 C 647 103.378906 632 103.378906 617 103.378906 "/>
<path style=" stroke:none;fill-rule:evenodd;fill:rgb(22.698975%,25.498962%,27.099609%);fill-opacity:1;" d="M 982 244.378906 C 994.292969 242.429688 1011.269531 244.445313 1023 246.378906 C 1008.921875 246.128906 996.46875 244.246094 982 244.378906 "/>
<g clip-path="url(#clip1)" clip-rule="nonzero">
<path style=" stroke:none;fill-rule:evenodd;fill:rgb(8.999634%,10.198975%,11.399841%);fill-opacity:1;" d="M 608 78.378906 C 527.515625 78.640625 459.433594 88.847656 394 104.378906 C 378.90625 107.964844 344.445313 122.597656 331 121.378906 C 322.289063 120.59375 307.046875 108.707031 297 104.378906 C 209.4375 66.648438 112.851563 46.007813 22 15.378906 C 55.339844 80.375 88.007813 146.039063 117 215.378906 C 80.058594 237.101563 41.15625 256.867188 14 288.378906 C 84.042969 387.058594 175.519531 460.242188 280 525.378906 C 356.066406 572.800781 441.9375 614.410156 540 642.378906 C 569.035156 650.660156 613.777344 666.75 643 665.378906 C 667 664.253906 700.242188 650.351563 726 642.378906 C 916.339844 583.484375 1068.988281 484.007813 1199 368.378906 C 1208.75 359.464844 1218.089844 350.128906 1227 340.378906 C 1233.398438 327.058594 1266.800781 306.613281 1265 287.378906 C 1263.808594 274.613281 1230.21875 254.527344 1218 246.378906 C 1198.191406 233.167969 1177.398438 223.058594 1162 213.378906 C 1191.828125 145.542969 1223.441406 79.488281 1257 15.378906 C 1164.210938 46.1875 1063.109375 66.59375 975 104.378906 C 964.761719 108.769531 947.359375 121.15625 939 121.378906 C 932.449219 121.554688 919.269531 114.960938 910 112.378906 C 836.109375 91.789063 762.640625 78.949219 671 78.378906 C 652.332031 76.714844 626.671875 76.714844 608 78.378906 Z M 1279 288.378906 C 1269.019531 313.730469 1250.910156 330.953125 1235 350.378906 C 1224.921875 359.628906 1215.25 369.296875 1206 379.378906 C 1054.351563 515.058594 874.0625 622.113281 643 678.378906 C 642.335938 678.378906 641.667969 678.378906 641 678.378906 C 403.644531 636.746094 234.625 526.742188 88 394.378906 C 78.085938 383.628906 67.75 373.296875 57 363.378906 C 46.851563 351.449219 37.089844 341.21875 26 327.378906 C 18.875 318.484375 -0.179688 299.6875 0 287.378906 C 0.226563 272.121094 35.886719 251.558594 46 244.378906 C 64.765625 231.0625 81.222656 219.65625 101 210.378906 C 74.265625 147.921875 44.730469 86.820313 12 26.378906 C 6.261719 15.777344 0.441406 8.082031 7 2.378906 C 16.167969 -5.589844 73.269531 17.621094 89 22.378906 C 159.96875 43.851563 229.234375 61.746094 296 90.378906 C 306.882813 95.046875 324.667969 106.789063 333 107.378906 C 348.296875 108.464844 380.964844 94.171875 397 90.378906 C 463.210938 74.730469 536.207031 65.359375 615 65.378906 C 631.335938 65.378906 647.667969 65.378906 664 65.378906 C 753.707031 65.257813 834.027344 78.011719 908 98.378906 C 915.921875 100.5625 930.082031 107.71875 938 107.378906 C 946.0625 107.035156 965.582031 95.0625 977 90.378906 C 1056.46875 57.796875 1144.089844 35.679688 1231 9.378906 C 1244.171875 5.394531 1266.441406 -3.375 1272 1.378906 C 1281.308594 9.347656 1258.550781 40.167969 1253 51.378906 C 1227.410156 103.132813 1201.390625 154.054688 1179 207.378906 C 1214.691406 231.359375 1256.738281 248.972656 1279 286.378906 C 1279 287.046875 1279 287.714844 1279 288.378906 "/>
</g>
<path style=" stroke:none;fill-rule:evenodd;fill:rgb(74.899292%,75.299072%,76.899719%);fill-opacity:1;" d="M 1206 379.378906 C 1215.25 369.296875 1224.921875 359.628906 1235 350.378906 C 1225.75 360.464844 1216.089844 370.128906 1206 379.378906 "/>
<path style=" stroke:none;fill-rule:evenodd;fill:rgb(74.899292%,75.299072%,76.899719%);fill-opacity:1;" d="M 57 363.378906 C 67.75 373.296875 78.085938 383.628906 88 394.378906 C 77.25 384.464844 66.917969 374.128906 57 363.378906 "/>
<path style=" stroke:none;fill-rule:evenodd;fill:rgb(100%,100%,100%);fill-opacity:1;" d="M 617 103.378906 C 509.082031 106.128906 416.632813 124.34375 331 149.378906 C 248.027344 106.683594 154.558594 74.488281 60 43.378906 C 91.128906 100.917969 119.433594 161.28125 146 223.378906 C 106.710938 242.753906 69.84375 264.554688 38 291.378906 C 111.027344 376.757813 198.066406 447.039063 298 508.378906 C 370.007813 552.578125 451.277344 593.085938 544 619.378906 C 574.371094 627.992188 614.199219 641.546875 643 640.378906 C 668.066406 639.363281 701.433594 625.425781 727 617.378906 C 919.039063 556.96875 1069.480469 454.683594 1201 337.378906 C 1208.75 330.464844 1216.089844 323.128906 1223 315.378906 C 1228.578125 306.953125 1237.230469 301.605469 1241 291.378906 C 1211.261719 261.785156 1170.949219 242.765625 1134 220.378906 C 1160.519531 159.5625 1187.761719 99.472656 1219 43.378906 C 1137.25 70.691406 1055.199219 97.582031 980 133.378906 C 970.183594 138.054688 954.8125 147.988281 947 148.378906 C 930.148438 149.21875 902.078125 136.003906 882 131.378906 C 814.800781 115.90625 738.929688 105.351563 662 103.378906 C 649.328125 101.714844 629.671875 101.714844 617 103.378906 Z M 1199 368.378906 C 1068.988281 484.007813 916.339844 583.484375 726 642.378906 C 700.242188 650.351563 667 664.253906 643 665.378906 C 613.777344 666.75 569.035156 650.660156 540 642.378906 C 441.9375 614.410156 356.066406 572.800781 280 525.378906 C 175.519531 460.242188 84.042969 387.058594 14 288.378906 C 41.15625 256.867188 80.058594 237.101563 117 215.378906 C 88.007813 146.039063 55.339844 80.375 22 15.378906 C 112.851563 46.007813 209.4375 66.648438 297 104.378906 C 307.046875 108.707031 322.289063 120.59375 331 121.378906 C 344.445313 122.597656 378.90625 107.964844 394 104.378906 C 459.433594 88.847656 527.515625 78.640625 608 78.378906 C 629 78.378906 650 78.378906 671 78.378906 C 762.640625 78.949219 836.109375 91.789063 910 112.378906 C 919.269531 114.960938 932.449219 121.554688 939 121.378906 C 947.359375 121.15625 964.761719 108.769531 975 104.378906 C 1063.109375 66.59375 1164.210938 46.1875 1257 15.378906 C 1223.441406 79.488281 1191.828125 145.542969 1162 213.378906 C 1177.398438 223.058594 1198.191406 233.167969 1218 246.378906 C 1230.21875 254.527344 1263.808594 274.613281 1265 287.378906 C 1266.800781 306.613281 1233.398438 327.058594 1227 340.378906 C 1217.25 349.296875 1207.921875 358.628906 1199 368.378906 "/>
<path style=" stroke:none;fill-rule:evenodd;fill:rgb(74.899292%,75.299072%,76.899719%);fill-opacity:1;" d="M 1199 368.378906 C 1207.921875 358.628906 1217.25 349.296875 1227 340.378906 C 1218.089844 350.128906 1208.75 359.464844 1199 368.378906 "/>
<path style=" stroke:none;fill-rule:evenodd;fill:rgb(74.899292%,75.299072%,76.899719%);fill-opacity:1;" d="M 1201 337.378906 C 1207.921875 329.628906 1215.25 322.296875 1223 315.378906 C 1216.089844 323.128906 1208.75 330.464844 1201 337.378906 "/>
<path style=" stroke:none;fill-rule:evenodd;fill:rgb(8.999634%,10.198975%,11.399841%);fill-opacity:1;" d="M 92 331.378906 C 163.390625 399.699219 242.0625 463.207031 332 514.378906 C 397.355469 551.566406 471.285156 586.363281 554 608.378906 C 581.398438 615.671875 616.386719 627.199219 642 626.378906 C 667.386719 625.570313 699.785156 612.941406 727 604.378906 C 916.675781 544.710938 1068.230469 439.273438 1196 323.378906 C 1163.960938 347.003906 1128.75 367.464844 1094 388.378906 C 1005.328125 436.300781 914.375 475.949219 799 498.378906 C 783.308594 501.429688 763.457031 508.742188 750 507.378906 C 734.089844 505.769531 711.332031 489.09375 694 480.378906 C 683.148438 474.921875 651.292969 452.140625 639 452.378906 C 632.574219 452.507813 619.710938 462.503906 612 466.378906 C 601.59375 471.613281 591.683594 475.414063 584 479.378906 C 566.882813 488.222656 545.554688 505.714844 529 507.378906 C 511.808594 509.109375 481.609375 499.542969 463 495.378906 C 311.628906 461.515625 193.046875 397.1875 85 322.378906 C 81.3125 323.816406 89.960938 329.121094 92 331.378906 Z M 982 244.378906 C 981.667969 244.378906 981.335938 244.378906 981 244.378906 C 960.289063 249.664063 950.765625 266.144531 936 277.378906 C 932.613281 279.988281 930.257813 283.636719 926 285.378906 C 888.109375 318.15625 851.707031 352.417969 817 388.378906 C 815.996094 388.378906 815.8125 389.191406 815 389.378906 C 801.855469 402.234375 788.441406 414.816406 776 428.378906 C 775.945313 428.988281 775.851563 429.5625 775 429.378906 C 769.023438 435.066406 763.648438 441.359375 758 447.378906 C 761.660156 448.5625 776.167969 443.648438 783 441.378906 C 909.777344 409.175781 1027.921875 358.980469 1122 294.378906 C 1127.660156 290.496094 1139.621094 286.046875 1136 281.378906 C 1135.78125 280.601563 1135.160156 280.21875 1134 280.378906 C 1133.941406 279.769531 1133.851563 279.195313 1133 279.378906 C 1125.671875 273.378906 1115.679688 270.039063 1106 266.378906 C 1102.078125 266.300781 1099.761719 264.617188 1097 263.378906 C 1090.03125 259.347656 1080.890625 257.496094 1072 255.378906 C 1065.121094 254.929688 1059.78125 252.9375 1054 251.378906 C 1045.140625 248.570313 1035.03125 247.023438 1024 246.378906 C 1023.671875 246.378906 1023.328125 246.378906 1023 246.378906 C 1011.269531 244.445313 994.292969 242.429688 982 244.378906 Z M 283 244.378906 C 259.136719 242.414063 232.183594 245.390625 212 250.378906 C 211.667969 250.378906 211.335938 250.378906 211 250.378906 C 177.828125 255.871094 149.515625 266.226563 125 280.378906 C 124 280.378906 123.8125 281.191406 123 281.378906 C 214.792969 354.257813 338.589844 403.792969 471 439.378906 C 479.8125 443.570313 491.589844 444.792969 501 448.378906 C 507.574219 447.699219 494.808594 439.1875 493 437.378906 C 425.558594 369.9375 358.875 300.382813 284 244.378906 C 283.667969 244.378906 283.335938 244.378906 283 244.378906 Z M 801 382.378906 C 844.84375 336.988281 891.898438 293.910156 941 252.378906 C 949.808594 244.929688 963.421875 229.875 971 228.378906 C 983.695313 225.878906 1005.800781 230.585938 1020 232.378906 C 1068.621094 238.53125 1110.648438 249.71875 1145 267.378906 C 1120.738281 245.878906 1068.328125 226.296875 1019 219.378906 C 1003.261719 217.171875 978.015625 211.960938 962 216.378906 C 953.664063 218.679688 939.949219 234.679688 931 242.378906 C 859.152344 304.21875 794.996094 382.785156 731 446.378906 C 758.257813 430.414063 778.273438 405.910156 801 382.378906 Z M 358 262.378906 C 343.386719 248.929688 321.101563 222.566406 305 217.378906 C 276.191406 208.101563 226.773438 222.671875 199 230.378906 C 167.144531 239.222656 137.460938 252.363281 120 268.378906 C 154.410156 248.761719 197.542969 239.761719 247 233.378906 C 261.355469 231.527344 283.742188 225.136719 297 228.378906 C 303.535156 229.980469 317.492188 245.347656 326 252.378906 C 376.648438 294.246094 420.800781 339.179688 465 383.378906 C 487.941406 406.316406 510.296875 433.113281 536 445.378906 C 480.414063 393.230469 422.621094 321.855469 358 262.378906 Z M 86 61.378906 C 89.277344 73.441406 100.34375 86.367188 105 100.378906 C 109.117188 107.933594 112.328125 116.386719 117 123.378906 C 129.078125 147.144531 140.847656 174.410156 152 199.378906 C 155.4375 207.070313 157.4375 220.546875 169 220.378906 C 152.476563 177.90625 129.996094 132.71875 110 90.378906 C 108.6875 87.695313 107.316406 85.0625 106 82.378906 C 163.015625 101.871094 224.996094 120.96875 281 144.378906 C 293.832031 149.742188 323.046875 167.855469 336 168.378906 C 352.789063 169.0625 388.558594 154.308594 405 150.378906 C 570.535156 110.828125 785.273438 113.199219 943 157.378906 C 769.796875 99.824219 505.929688 96.378906 334 157.378906 C 258.355469 118.359375 173.535156 88.515625 86 61.378906 Z M 1198 66.378906 C 1200.371094 64.078125 1201.199219 60.246094 1203 57.378906 C 1127.21875 82.261719 1052.890625 108.601563 984 140.378906 C 976.988281 143.699219 968.792969 145.835938 964 151.378906 C 965.179688 151.222656 966.839844 151.550781 967 150.378906 C 1034 121.386719 1103.738281 95.113281 1178 73.378906 C 1158.421875 120.800781 1126.589844 173.304688 1106 226.378906 C 1141.589844 243.125 1181.121094 255.925781 1210 279.378906 C 1183.878906 252.734375 1151.398438 241.308594 1123 221.378906 C 1146.519531 168.230469 1169.511719 114.554688 1198 66.378906 Z M 662 103.378906 C 738.929688 105.351563 814.800781 115.90625 882 131.378906 C 902.078125 136.003906 930.148438 149.21875 947 148.378906 C 954.8125 147.988281 970.183594 138.054688 980 133.378906 C 1055.199219 97.582031 1137.25 70.691406 1219 43.378906 C 1187.761719 99.472656 1160.519531 159.5625 1134 220.378906 C 1170.949219 242.765625 1211.261719 261.785156 1241 291.378906 C 1237.230469 301.605469 1228.578125 306.953125 1223 315.378906 C 1215.25 322.296875 1207.921875 329.628906 1201 337.378906 C 1069.480469 454.683594 919.039063 556.96875 727 617.378906 C 701.433594 625.425781 668.066406 639.363281 643 640.378906 C 614.199219 641.546875 574.371094 627.992188 544 619.378906 C 451.277344 593.085938 370.007813 552.578125 298 508.378906 C 198.066406 447.039063 111.027344 376.757813 38 291.378906 C 69.84375 264.554688 106.710938 242.753906 146 223.378906 C 119.433594 161.28125 91.128906 100.917969 60 43.378906 C 154.558594 74.488281 248.027344 106.683594 331 149.378906 C 416.632813 124.34375 509.082031 106.128906 617 103.378906 C 632 103.378906 647 103.378906 662 103.378906 "/>
<path style=" stroke:none;fill-rule:evenodd;fill:rgb(22.698975%,25.498962%,27.099609%);fill-opacity:1;" d="M 967 150.378906 C 966.839844 151.550781 965.179688 151.222656 964 151.378906 C 968.792969 145.835938 976.988281 143.699219 984 140.378906 C 979.664063 144.386719 968.566406 146.929688 967 150.378906 "/>
<path style=" stroke:none;fill-rule:evenodd;fill:rgb(22.698975%,25.498962%,27.099609%);fill-opacity:1;" d="M 1178 73.378906 C 1184.261719 70.640625 1191.710938 69.089844 1198 66.378906 C 1169.511719 114.554688 1146.519531 168.230469 1123 221.378906 C 1151.398438 241.308594 1183.878906 252.734375 1210 279.378906 C 1181.121094 255.925781 1141.589844 243.125 1106 226.378906 C 1126.589844 173.304688 1158.421875 120.800781 1178 73.378906 "/>
<path style=" stroke:none;fill-rule:evenodd;fill:rgb(22.698975%,25.498962%,27.099609%);fill-opacity:1;" d="M 105 100.378906 C 110.210938 106.839844 113.460938 115.253906 117 123.378906 C 112.328125 116.386719 109.117188 107.933594 105 100.378906 "/>
<path style=" stroke:none;fill-rule:evenodd;fill:rgb(22.698975%,25.498962%,27.099609%);fill-opacity:1;" d="M 86 61.378906 C 173.535156 88.515625 258.355469 118.359375 334 157.378906 C 505.929688 96.378906 769.796875 99.824219 943 157.378906 C 785.273438 113.199219 570.535156 110.828125 405 150.378906 C 388.558594 154.308594 352.789063 169.0625 336 168.378906 C 323.046875 167.855469 293.832031 149.742188 281 144.378906 C 224.996094 120.96875 163.015625 101.871094 106 82.378906 C 107.316406 85.0625 108.6875 87.695313 110 90.378906 C 104.1875 82.859375 100.625 73.089844 96 64.378906 C 91.707031 64.339844 88.640625 63.074219 86 61.378906 "/>
<path style=" stroke:none;fill-rule:evenodd;fill:rgb(22.698975%,25.498962%,27.099609%);fill-opacity:1;" d="M 536 445.378906 C 510.296875 433.113281 487.941406 406.316406 465 383.378906 C 420.800781 339.179688 376.648438 294.246094 326 252.378906 C 317.492188 245.347656 303.535156 229.980469 297 228.378906 C 283.742188 225.136719 261.355469 231.527344 247 233.378906 C 197.542969 239.761719 154.410156 248.761719 120 268.378906 C 137.460938 252.363281 167.144531 239.222656 199 230.378906 C 226.773438 222.671875 276.191406 208.101563 305 217.378906 C 321.101563 222.566406 343.386719 248.929688 358 262.378906 C 422.621094 321.855469 480.414063 393.230469 536 445.378906 "/>
<path style=" stroke:none;fill-rule:evenodd;fill:rgb(22.698975%,25.498962%,27.099609%);fill-opacity:1;" d="M 731 446.378906 C 794.996094 382.785156 859.152344 304.21875 931 242.378906 C 939.949219 234.679688 953.664063 218.679688 962 216.378906 C 978.015625 211.960938 1003.261719 217.171875 1019 219.378906 C 1068.328125 226.296875 1120.738281 245.878906 1145 267.378906 C 1110.648438 249.71875 1068.621094 238.53125 1020 232.378906 C 1005.800781 230.585938 983.695313 225.878906 971 228.378906 C 963.421875 229.875 949.808594 244.929688 941 252.378906 C 891.898438 293.910156 844.84375 336.988281 801 382.378906 C 778.273438 405.910156 758.257813 430.414063 731 446.378906 "/>
<path style=" stroke:none;fill-rule:evenodd;fill:rgb(22.698975%,25.498962%,27.099609%);fill-opacity:1;" d="M 283 244.378906 C 260.84375 244.230469 233.605469 246.738281 212 250.378906 C 232.183594 245.390625 259.136719 242.414063 283 244.378906 "/>
<path style=" stroke:none;fill-rule:evenodd;fill:rgb(22.698975%,25.498962%,27.099609%);fill-opacity:1;" d="M 125 280.378906 C 149.515625 266.226563 177.828125 255.871094 211 250.378906 C 179.460938 257.773438 147.644531 267.734375 127 280.378906 C 126.335938 280.378906 125.667969 280.378906 125 280.378906 "/>
<path style=" stroke:none;fill-rule:evenodd;fill:rgb(22.698975%,25.498962%,27.099609%);fill-opacity:1;" d="M 284 244.378906 C 358.875 300.382813 425.558594 369.9375 493 437.378906 C 494.808594 439.1875 507.574219 447.699219 501 448.378906 C 454.925781 396.777344 397.765625 343.925781 356 306.378906 C 332.667969 283.566406 306.15625 262.484375 284 244.378906 "/>
<path style=" stroke:none;fill-rule:evenodd;fill:rgb(22.698975%,25.498962%,27.099609%);fill-opacity:1;" d="M 936 277.378906 C 950.765625 266.144531 960.289063 249.664063 981 244.378906 C 965.066406 248.679688 951.605469 266.75 936 277.378906 "/>
<path style=" stroke:none;fill-rule:evenodd;fill:rgb(22.698975%,25.498962%,27.099609%);fill-opacity:1;" d="M 817 388.378906 C 851.707031 352.417969 888.109375 318.15625 926 285.378906 C 891.457031 317.4375 846.144531 359.558594 817 388.378906 "/>
<path style=" stroke:none;fill-rule:evenodd;fill:rgb(22.698975%,25.498962%,27.099609%);fill-opacity:1;" d="M 815 389.378906 C 815.621094 393.058594 808.726563 394.359375 811 396.378906 C 802.816406 396.980469 809.601563 403.183594 802 402.378906 C 798.566406 409.339844 781.644531 422.167969 778 428.378906 C 777.335938 428.378906 776.667969 428.378906 776 428.378906 C 788.441406 414.816406 801.855469 402.234375 815 389.378906 "/>
<path style=" stroke:none;fill-rule:evenodd;fill:rgb(22.698975%,25.498962%,27.099609%);fill-opacity:1;" d="M 775 429.378906 C 774.648438 432.695313 772.007813 433.71875 770 435.378906 C 778.101563 431.394531 760.753906 444.441406 758 447.378906 C 763.648438 441.359375 769.023438 435.066406 775 429.378906 "/>
<path style=" stroke:none;fill-rule:evenodd;fill:rgb(22.698975%,25.498962%,27.099609%);fill-opacity:1;" d="M 1106 266.378906 C 1115.679688 270.039063 1125.671875 273.378906 1133 279.378906 C 1124.429688 274.621094 1114.410156 271.304688 1106 266.378906 "/>
<path style=" stroke:none;fill-rule:evenodd;fill:rgb(22.698975%,25.498962%,27.099609%);fill-opacity:1;" d="M 1072 255.378906 C 1080.890625 257.496094 1090.03125 259.347656 1097 263.378906 C 1093.921875 264.792969 1086.328125 257.644531 1082 260.378906 C 1082.800781 257.296875 1074.589844 258.023438 1072 255.378906 "/>
<path style=" stroke:none;fill-rule:evenodd;fill:rgb(22.698975%,25.498962%,27.099609%);fill-opacity:1;" d="M 1024 246.378906 C 1035.03125 247.023438 1045.140625 248.570313 1054 251.378906 C 1043.800781 249.914063 1033.488281 248.554688 1024 246.378906 "/>
<path style=" stroke:none;fill-rule:evenodd;fill:rgb(41.19873%,64.299011%,83.499146%);fill-opacity:1;" d="M 212 250.378906 C 233.605469 246.738281 260.84375 244.230469 283 244.378906 C 283.335938 244.378906 283.667969 244.378906 284 244.378906 C 306.15625 262.484375 332.667969 283.566406 356 306.378906 C 397.765625 343.925781 454.925781 396.777344 501 448.378906 C 491.589844 444.792969 479.8125 443.570313 471 439.378906 C 348.390625 398.324219 223.542969 350.835938 127 280.378906 C 147.644531 267.734375 179.460938 257.773438 211 250.378906 C 211.335938 250.378906 211.667969 250.378906 212 250.378906 "/>
<path style=" stroke:none;fill-rule:evenodd;fill:rgb(41.19873%,64.299011%,83.499146%);fill-opacity:1;" d="M 981 244.378906 C 981.335938 244.378906 981.667969 244.378906 982 244.378906 C 996.46875 244.246094 1008.921875 246.128906 1023 246.378906 C 1023.328125 246.378906 1023.671875 246.378906 1024 246.378906 C 1033.488281 248.554688 1043.800781 249.914063 1054 251.378906 C 1059.78125 252.9375 1065.121094 254.929688 1072 255.378906 C 1074.589844 258.023438 1082.800781 257.296875 1082 260.378906 C 1086.328125 257.644531 1093.921875 264.792969 1097 263.378906 C 1099.761719 264.617188 1102.078125 266.300781 1106 266.378906 C 1114.410156 271.304688 1124.429688 274.621094 1133 279.378906 C 1133.851563 279.195313 1133.941406 279.769531 1134 280.378906 C 1035.261719 351.628906 908.246094 399.960938 783 441.378906 C 776.167969 443.648438 761.660156 448.5625 758 447.378906 C 760.753906 444.441406 778.101563 431.394531 770 435.378906 C 772.007813 433.71875 774.648438 432.695313 775 429.378906 C 775.851563 429.5625 775.945313 428.988281 776 428.378906 C 776.667969 428.378906 777.335938 428.378906 778 428.378906 C 781.644531 422.167969 798.566406 409.339844 802 402.378906 C 809.601563 403.183594 802.816406 396.980469 811 396.378906 C 808.726563 394.359375 815.621094 393.058594 815 389.378906 C 815.8125 389.191406 815.996094 388.378906 817 388.378906 C 846.144531 359.558594 891.457031 317.4375 926 285.378906 C 930.257813 283.636719 932.613281 279.988281 936 277.378906 C 951.605469 266.75 965.066406 248.679688 981 244.378906 "/>
<path style=" stroke:none;fill-rule:evenodd;fill:rgb(83.898926%,84.298706%,84.698486%);fill-opacity:1;" d="M 639.5 589.015625 C 633.320313 583.671875 625.753906 579.71875 619.296875 574.652344 C 602.355469 573.414063 566.386719 565.367188 543.109375 559.574219 C 362.46875 514.609375 217.894531 425.023438 92 331.378906 C 163.566406 400.058594 242.429688 463.902344 332.59375 515.34375 C 398.109375 552.722656 472.21875 587.703125 555.136719 609.835938 C 581.257813 616.808594 614.246094 627.617188 639.5 627.957031 L 639.5 589.015625 "/>
<path style=" stroke:none;fill-rule:evenodd;fill:rgb(74.899292%,75.299072%,76.899719%);fill-opacity:1;" d="M 1093.890625 388.710938 C 968.171875 467.863281 828.460938 532.96875 663.421875 572.644531 C 655.070313 577.726563 647.761719 583.855469 639.5 589.03125 L 639.5 627.957031 C 640.136719 627.953125 640.773438 627.945313 641.398438 627.925781 C 666.8125 627.109375 699.246094 614.417969 726.492188 605.8125 C 916.371094 545.839844 1068.089844 439.863281 1196 323.378906 C 1163.921875 347.121094 1128.679688 367.691406 1093.890625 388.710938 "/>
<path style=" stroke:none;fill-rule:evenodd;fill:rgb(100%,100%,100%);fill-opacity:1;" d="M 664 571.378906 C 678.421875 557.46875 695.089844 545.800781 704 526.378906 C 668.378906 515.066406 612.15625 516.488281 575 525.378906 C 583.84375 546.871094 601.917969 559.128906 618 573.378906 C 601.101563 572.148438 565.222656 564.144531 542 558.378906 C 361.804688 513.648438 217.585938 424.53125 92 331.378906 C 89.960938 329.121094 81.3125 323.816406 85 322.378906 C 193.046875 397.1875 311.628906 461.515625 463 495.378906 C 481.609375 499.542969 511.808594 509.109375 529 507.378906 C 545.554688 505.714844 566.882813 488.222656 584 479.378906 C 591.683594 475.414063 601.59375 471.613281 612 466.378906 C 619.710938 462.503906 632.574219 452.507813 639 452.378906 C 651.292969 452.140625 683.148438 474.921875 694 480.378906 C 711.332031 489.09375 734.089844 505.769531 750 507.378906 C 763.457031 508.742188 783.308594 501.429688 799 498.378906 C 914.375 475.949219 1005.328125 436.300781 1094 388.378906 C 968.421875 467.132813 828.859375 531.902344 664 571.378906 "/>
<path style=" stroke:none;fill-rule:evenodd;fill:rgb(74.899292%,75.299072%,76.899719%);fill-opacity:1;" d="M 596 534.382813 C 597.617188 539.765625 599.464844 544.914063 601 550.382813 C 594.503906 545.214844 589.960938 538.089844 586 530.382813 C 598.617188 527.597656 617.878906 524.179688 635 523.382813 C 638.875 523.199219 656.625 522.910156 649 524.382813 C 629.644531 526.023438 612.601563 529.980469 596 534.382813 "/>
<path style=" stroke:none;fill-rule:evenodd;fill:rgb(57.598877%,59.599304%,60.398865%);fill-opacity:1;" d="M 86 61.378906 C 88.640625 63.074219 91.707031 64.339844 96 64.378906 C 100.625 73.089844 104.1875 82.859375 110 90.378906 C 129.996094 132.71875 152.476563 177.90625 169 220.378906 C 157.4375 220.546875 155.4375 207.070313 152 199.378906 C 140.847656 174.410156 129.078125 147.144531 117 123.378906 C 113.460938 115.253906 110.210938 106.839844 105 100.378906 C 100.34375 86.367188 89.277344 73.441406 86 61.378906 "/>
<path style=" stroke:none;fill-rule:evenodd;fill:rgb(57.598877%,59.599304%,60.398865%);fill-opacity:1;" d="M 967 150.378906 C 968.566406 146.929688 979.664063 144.386719 984 140.378906 C 1052.890625 108.601563 1127.21875 82.261719 1203 57.378906 C 1201.199219 60.246094 1200.371094 64.078125 1198 66.378906 C 1191.710938 69.089844 1184.261719 70.640625 1178 73.378906 C 1103.738281 95.113281 1034 121.386719 967 150.378906 "/>
<g clip-path="url(#clip2)" clip-rule="nonzero">
<path style=" stroke:none;fill-rule:evenodd;fill:rgb(100%,100%,100%);fill-opacity:1;" d="M 1235 350.378906 C 1250.910156 330.953125 1269.019531 313.730469 1279 288.378906 C 1279 418.382813 1279 548.378906 1279 678.378906 C 1067 678.378906 855 678.378906 643 678.378906 C 874.0625 622.113281 1054.351563 515.058594 1206 379.378906 C 1216.089844 370.128906 1225.75 360.464844 1235 350.378906 "/>
</g>
<path style=" stroke:none;fill-rule:evenodd;fill:rgb(74.899292%,75.299072%,76.899719%);fill-opacity:1;" d="M 608 78.378906 C 626.671875 76.714844 652.332031 76.714844 671 78.378906 C 650 78.378906 629 78.378906 608 78.378906 "/>
<path style=" stroke:none;fill-rule:evenodd;fill:rgb(8.999634%,10.198975%,11.399841%);fill-opacity:1;" d="M 649 524.382813 C 656.625 522.910156 638.875 523.199219 635 523.382813 C 617.878906 524.179688 598.617188 527.597656 586 530.382813 C 589.960938 538.089844 594.503906 545.214844 601 550.382813 C 599.464844 544.914063 597.617188 539.765625 596 534.382813 C 612.601563 529.980469 629.644531 526.023438 649 524.382813 Z M 618 574.382813 C 601.917969 560.128906 583.84375 547.871094 575 526.382813 C 612.15625 517.488281 668.378906 516.066406 704 527.382813 C 695.089844 546.800781 678.421875 558.46875 664 572.382813 C 655.285156 577.664063 647.714844 584.09375 639 589.378906 C 632.695313 583.6875 624.738281 579.644531 618 574.382813 "/>
<path style=" stroke:none;fill-rule:evenodd;fill:rgb(35.699463%,42.399597%,67.098999%);fill-opacity:1;" d="M 499.730469 448.441406 C 499.742188 448.441406 499.75 448.4375 499.761719 448.441406 C 500.242188 448.535156 500.730469 448.621094 501.214844 448.714844 C 501.082031 448.503906 501 448.378906 501 448.378906 L 504.519531 448.378906 C 504.519531 448.378906 321.335938 253.046875 284 240.382813 C 284 240.382813 174.667969 243.714844 125 280.378906 L 129.515625 286.460938 C 129.515625 286.460938 208 245.046875 283 253.714844 C 283 253.714844 488.421875 433.085938 499.210938 447.734375 C 499.394531 447.984375 499.558594 448.203125 499.730469 448.441406 "/>
<path style=" stroke:none;fill-rule:evenodd;fill:rgb(46.699524%,77.999878%,90.99884%);fill-opacity:1;" d="M 471 439.378906 C 338.589844 403.792969 214.792969 354.257813 123 281.378906 C 123.8125 281.191406 124 280.378906 125 280.378906 C 125.667969 280.378906 126.335938 280.378906 127 280.378906 C 223.542969 350.835938 348.390625 398.324219 471 439.378906 "/>
<path style=" stroke:none;fill-rule:evenodd;fill:rgb(35.699463%,42.399597%,67.098999%);fill-opacity:1;" d="M 761.710938 447.378906 C 761.710938 447.378906 961 249.878906 982 248.878906 C 982 248.878906 1127.980469 274.878906 1135.738281 285.378906 C 1135.738281 285.378906 1139.480469 283.878906 1135.738281 279.378906 C 1132 274.878906 1015 230.382813 974.996094 242.882813 C 974.996094 242.882813 911.5 294.675781 857.5 344.027344 C 803.5 393.378906 758 447.378906 758 447.378906 L 761.710938 447.378906 "/>
<path style=" stroke:none;fill-rule:evenodd;fill:rgb(46.699524%,77.999878%,90.99884%);fill-opacity:1;" d="M 1134 280.378906 C 1135.160156 280.21875 1135.78125 280.601563 1136 281.378906 C 1139.621094 286.046875 1127.660156 290.496094 1122 294.378906 C 1027.921875 358.980469 909.777344 409.175781 783 441.378906 C 908.246094 399.960938 1035.261719 351.628906 1134 280.378906 "/>
</g>
</svg>
